<?xml version="1.0" encoding="utf-8"?>
<svg xmlns="http://www.w3.org/2000/svg" xmlns:xlink="http://www.w3.org/1999/xlink">    
    <symbol viewBox="0 0 20 23" id="profile" xmlns="http://www.w3.org/2000/svg">
        <path d="M10.19 11.08c1.508 0 2.813-.547 3.88-1.624 1.066-1.077 1.606-2.394 1.606-3.917 0-1.521-.54-2.84-1.607-3.916C13.002.546 11.698 0 10.191 0 8.684 0 7.379.546 6.313 1.623 5.246 2.7 4.706 4.017 4.706 5.539c0 1.523.54 2.84 1.607 3.917 1.066 1.077 2.371 1.623 3.878 1.623zM19.788 17.685a13.79 13.79 0 00-.184-1.453 11.535 11.535 0 00-.354-1.461 7.254 7.254 0 00-.595-1.363 5.139 5.139 0 00-.897-1.18 3.95 3.95 0 00-1.288-.818c-.5-.2-1.053-.3-1.645-.3-.232 0-.457.096-.891.381-.267.176-.58.38-.929.605-.298.192-.702.372-1.202.535-.487.159-.981.24-1.469.24-.488 0-.982-.081-1.47-.24-.499-.163-.903-.343-1.2-.535-.346-.223-.659-.426-.93-.605-.434-.285-.659-.382-.891-.382-.593 0-1.146.102-1.645.301-.5.2-.934.476-1.288.818-.339.327-.64.724-.897 1.18a7.27 7.27 0 00-.595 1.363c-.142.45-.261.94-.353 1.461a13.767 13.767 0 00-.185 1.454c-.03.44-.046.897-.046 1.358 0 1.2.378 2.172 1.124 2.89C2.694 22.64 3.668 23 4.852 23h10.965c1.184 0 2.158-.36 2.894-1.067.746-.716 1.123-1.688 1.123-2.89 0-.463-.015-.92-.046-1.358z"/>
    </symbol>   
</svg>
